<svg width="47" height="19" viewBox="0 0 47 19" fill="none" xmlns="http://www.w3.org/2000/svg">
<mask id="path-1-outside-1_1405_146" maskUnits="userSpaceOnUse" x="0" y="0" width="47" height="19" fill="black">
<rect fill="white" width="47" height="19"/>
<path d="M14.1 0.599998V1.5H7.8V18H6.9V1.5H0.6V0.599998H14.1ZM27.577 17.1V18H17.557V0.599998H18.457V17.1H27.577ZM33.8536 17.1H45.4336V1.86L38.6836 8.61L31.9336 1.86V18L31.0336 17.97V0.599998H31.9336L38.6836 7.35L45.4336 0.599998H46.3336V18L33.8536 17.97V17.1Z"/>
</mask>
<path d="M14.1 0.599998V1.5H7.8V18H6.9V1.5H0.6V0.599998H14.1ZM27.577 17.1V18H17.557V0.599998H18.457V17.1H27.577ZM33.8536 17.1H45.4336V1.86L38.6836 8.61L31.9336 1.86V18L31.0336 17.97V0.599998H31.9336L38.6836 7.35L45.4336 0.599998H46.3336V18L33.8536 17.97V17.1Z" fill="white"/>
<path d="M14.1 0.599998H14.5688V0.131248H14.1V0.599998ZM14.1 1.5V1.96875H14.5688V1.5H14.1ZM7.8 1.5V1.03125H7.33125V1.5H7.8ZM7.8 18V18.4688H8.26875V18H7.8ZM6.9 18H6.43125V18.4688H6.9V18ZM6.9 1.5H7.36875V1.03125H6.9V1.5ZM0.6 1.5H0.13125V1.96875H0.6V1.5ZM0.6 0.599998V0.131248H0.13125V0.599998H0.6ZM13.6313 0.599998V1.5H14.5688V0.599998H13.6313ZM14.1 1.03125H7.8V1.96875H14.1V1.03125ZM7.33125 1.5V18H8.26875V1.5H7.33125ZM7.8 17.5312H6.9V18.4688H7.8V17.5312ZM7.36875 18V1.5H6.43125V18H7.36875ZM6.9 1.03125H0.6V1.96875H6.9V1.03125ZM1.06875 1.5V0.599998H0.13125V1.5H1.06875ZM0.6 1.06875H14.1V0.131248H0.6V1.06875ZM27.577 17.1H28.0458V16.6312H27.577V17.1ZM27.577 18V18.4688H28.0458V18H27.577ZM17.557 18H17.0883V18.4688H17.557V18ZM17.557 0.599998V0.131248H17.0883V0.599998H17.557ZM18.457 0.599998H18.9258V0.131248H18.457V0.599998ZM18.457 17.1H17.9883V17.5687H18.457V17.1ZM27.1083 17.1V18H28.0458V17.1H27.1083ZM27.577 17.5312H17.557V18.4688H27.577V17.5312ZM18.0258 18V0.599998H17.0883V18H18.0258ZM17.557 1.06875H18.457V0.131248H17.557V1.06875ZM17.9883 0.599998V17.1H18.9258V0.599998H17.9883ZM18.457 17.5687H27.577V16.6312H18.457V17.5687ZM33.8536 17.1V16.6312H33.3848V17.1H33.8536ZM45.4336 17.1V17.5687H45.9023V17.1H45.4336ZM45.4336 1.86H45.9023V0.728335L45.1021 1.52854L45.4336 1.86ZM38.6836 8.61L38.3521 8.94146L38.6836 9.27291L39.0151 8.94146L38.6836 8.61ZM31.9336 1.86L32.2651 1.52854L31.4648 0.728335V1.86H31.9336ZM31.9336 18L31.918 18.4685L32.4023 18.4846V18H31.9336ZM31.0336 17.97H30.5648V18.4234L31.018 18.4385L31.0336 17.97ZM31.0336 0.599998V0.131248H30.5648V0.599998H31.0336ZM31.9336 0.599998L32.2651 0.268541L32.1278 0.131248H31.9336V0.599998ZM38.6836 7.35L38.3521 7.68146L38.6836 8.01291L39.0151 7.68146L38.6836 7.35ZM45.4336 0.599998V0.131248H45.2394L45.1021 0.268541L45.4336 0.599998ZM46.3336 0.599998H46.8023V0.131248H46.3336V0.599998ZM46.3336 18L46.3325 18.4687L46.8023 18.4699V18H46.3336ZM33.8536 17.97H33.3848V18.4376L33.8525 18.4387L33.8536 17.97ZM33.8536 17.5687H45.4336V16.6312H33.8536V17.5687ZM45.9023 17.1V1.86H44.9648V17.1H45.9023ZM45.1021 1.52854L38.3521 8.27854L39.0151 8.94146L45.7651 2.19145L45.1021 1.52854ZM39.0151 8.27854L32.2651 1.52854L31.6021 2.19145L38.3521 8.94146L39.0151 8.27854ZM31.4648 1.86V18H32.4023V1.86H31.4648ZM31.9492 17.5315L31.0492 17.5015L31.018 18.4385L31.918 18.4685L31.9492 17.5315ZM31.5023 17.97V0.599998H30.5648V17.97H31.5023ZM31.0336 1.06875H31.9336V0.131248H31.0336V1.06875ZM31.6021 0.931454L38.3521 7.68146L39.0151 7.01854L32.2651 0.268541L31.6021 0.931454ZM39.0151 7.68146L45.7651 0.931454L45.1021 0.268541L38.3521 7.01854L39.0151 7.68146ZM45.4336 1.06875H46.3336V0.131248H45.4336V1.06875ZM45.8648 0.599998V18H46.8023V0.599998H45.8648ZM46.3347 17.5313L33.8547 17.5013L33.8525 18.4387L46.3325 18.4687L46.3347 17.5313ZM34.3223 17.97V17.1H33.3848V17.97H34.3223Z" fill="white" mask="url(#path-1-outside-1_1405_146)"/>
</svg>
